<?xml version="1.0" encoding="utf-8"?>
<!-- Generator: Adobe Illustrator 28.0.0, SVG Export Plug-In . SVG Version: 6.00 Build 0)  -->
<svg version="1.1" xmlns="http://www.w3.org/2000/svg" xmlns:xlink="http://www.w3.org/1999/xlink" x="0px" y="0px"
	 viewBox="0 0 885 120.5" style="enable-background:new 0 0 885 120.5;" xml:space="preserve">
<style type="text/css">
	.st0{fill:#FFFFFF;stroke:#007AA1;stroke-width:4;stroke-linecap:round;stroke-linejoin:round;stroke-miterlimit:10;}
	.st1{fill:none;}
	.st2{fill:#007AA1;}
	.st3{font-family:'PTMono-Regular';}
	.st4{font-size:80px;}
	.st5{letter-spacing:8;}
</style>
<g id="Background">
</g>
<g id="Objects">
	<g>
		<g>
			<rect x="96.3" y="62.3" class="st0" width="5.7" height="58.2"/>
			<path class="st0" d="M94.3,62c0,0-7.5-1.6-5.9-26.4C90,10.7,102,5.3,102,5.3V62L94.3,62z"/>
		</g>
		<path class="st0" d="M77.1,6l-5.5,25.6L67,6l-4.6,25.6L56.9,6c-2.6,18.6-5.1,34.4-2.1,41.4c2.8,6.5,7.6,8.4,10.5,9v64.1h5.7V56.2
			c2.9-0.8,6.3-2.9,8.8-8.8C82.9,40.4,79.7,24.7,77.1,6z"/>
	</g>
	<rect x="120.6" y="33.5" class="st1" width="679.4" height="81"/>
	<text transform="matrix(1 0 0 1 128.3252 89.5)" class="st2 st3 st4 st5">CATERING CRM</text>
</g>
</svg>
